{"title":"11-11-11 2011 R2 READNFO XviD AC3 - MiSTERE","uid":6797970,"size":1691884001,"categoryP":"video","categoryS":"movies","magnet":"?xt=urn:btih:6ff9d41492ead6e8d4efbb1d3e5e0849a8d7278a&amp;dn=11-11-11+2011+R2+READNFO+XviD+AC3+-+MiSTERE&amp;tr=udp%3A%2F%2Ftracker.openbittorrent.com%3A80&amp;tr=udp%3A%2F%2Fopen.demonii.com%3A1337&amp;tr=udp%3A%2F%2Ftracker.coppersurfer.tk%3A6969&amp;tr=udp%3A%2F%2Fexodus.desync.com%3A6969","seeders":1,"leechers":0,"uploader":"TvTeam","files":116,"time":1320530256,"description":". \n &lt;a href=&quot;\nhttp://www.torrenting.com&quot; rel=&quot;nofollow&quot; target=&quot;_NEW&quot;&gt;\nhttp://www.torrenting.com&lt;/a&gt;          :     Once &amp; For all ;)\n\n\n               www . Torrenting . Com \n\n(((((((((((((= Enjoy No RAR releases =))))))))))))))))))))\n\n\n...................................NFO:....................................\n\n.11-11-11 2011 R2 READNFO XviD AC3 - MiSTERE\n &lt;a href=&quot;\nhttp://www.imdb.com/title/tt1712159/&quot; rel=&quot;nofollow&quot; target=&quot;_NEW&quot;&gt;\nhttp://www.imdb.com/title/tt1712159/&lt;/a&gt;\n\nSOURCE: 11-11-11 (2011)(DD5.1)(11-11-Bios) RENTAL ISO PAL\n\nVideo\nID                               : 0\nFormat                           : MPEG-4 Visual\nFormat profile                   : Advanced Simple@L5\nFormat settings, BVOP            : 2\nFormat settings, QPel            : No\nFormat settings, GMC             : No warppoints\nFormat settings, Matrix          : Default (H.263)\nMuxing mode                      : Packed bitstream\nCodec ID                         : XVID\nCodec ID/Hint                    : XviD\nDuration                         : 1h 32mn\nBit rate                         : 1 945 Kbps\nWidth                            : 720 pixels\nHeight                           : 304 pixels\nDisplay aspect ratio             : 2.35:1\nFrame rate                       : 25.000 fps\nColor space                      : YUV\nChroma subsampling               : 4:2:0\nBit depth                        : 8 bits\nScan type                        : Progressive\nCompression mode                 : Lossy\nBits/(Pixel*Frame)               : 0.355\nStream size                      : 1.26 GiB (81%)\nWriting library                  : XviD 64\n\nAudio\nID                               : 1\nFormat                           : AC-3\nFormat/Info                      : Audio Coding 3\nMode extension                   : CM (complete main)\nCodec ID                         : 2000\nDuration                         : 1h 32mn\nBit rate mode                    : Constant\nBit rate                         : 448 Kbps\nChannel(s)                       : 6 channels\nChannel positions                : Front: L C R, Side: L R, LFE\nSampling rate                    : 48.0 KHz\nBit depth                        : 16 bits\nCompression mode                 : Lossy\nStream size                      : 298 MiB (19%)\nAlignment                        : Aligned on interleaves\nInterleave, duration             : 40 ms (1.00 video frame)\n\n\n\nCropped Resized and tweaked RGB\nColors on source were wacked so \nalot went into sorting them\ncheck screenshotcomparison \nTagged R2 because thats what it is\nSource was PAL DVDR from the Netherlands\nHence R2, NOT DVDRIP\n &lt;a href=&quot;\nhttp://screenshotcomparison.com/comparison/92268&quot; rel=&quot;nofollow&quot; target=&quot;_NEW&quot;&gt;\nhttp://screenshotcomparison.com/comparison/92268&lt;/a&gt;\n\n[IMG]http://i.imgur.com/bYOOL.png[/IMG]\n[IMG]http://i.imgur.com/2suv0.png[/IMG]\n[IMG]http://i.imgur.com/IdHE0.png[/IMG]\n[IMG]http://i.imgur.com/CnIWW.png[/IMG]\n[IMG]http://i.imgur.com/YlnG2.png[/IMG]\n[IMG]http://i.imgur.com/SOGeh.png[/IMG]\n[IMG]http://i.imgur.com/VLAwS.png[/IMG]","torrent":{"xt":"urn:btih:6ff9d41492ead6e8d4efbb1d3e5e0849a8d7278a","amp;dn":"11-11-11+2011+R2+READNFO+XviD+AC3+-+MiSTERE","amp;tr":["udp%3A%2F%2Ftracker.openbittorrent.com%3A80","udp%3A%2F%2Fopen.demonii.com%3A1337","udp%3A%2F%2Ftracker.coppersurfer.tk%3A6969","udp%3A%2F%2Fexodus.desync.com%3A6969"],"infoHash":"6ff9d41492ead6e8d4efbb1d3e5e0849a8d7278a","infoHashBuffer":{"type":"Buffer","data":[111,249,212,20,146,234,214,232,212,239,187,29,62,94,8,73,168,215,39,138]},"announce":[],"urlList":[]}}